<?xml version="1.0" encoding="UTF-8"?>
<svg width="403px" height="432px" viewBox="0 0 403 432" version="1.1" xmlns="http://www.w3.org/2000/svg" xmlns:xlink="http://www.w3.org/1999/xlink">
    <g id="noun-clear-night-3786211" transform="translate(0.228001, 0.435883)" fill="none" fill-rule="nonzero">
        <path d="M179.991999,427.744117 C222.042999,435.236317 265.370999,430.208917 304.581999,413.283117 C343.800999,396.357117 377.179999,368.283117 400.573999,332.545117 C402.452899,329.670117 402.386499,325.939617 400.413839,323.127117 C398.441139,320.314617 394.956839,318.990417 391.613039,319.775517 C348.133039,329.959517 302.504039,325.416117 261.883039,306.861517 C221.266039,288.306517 187.957039,256.791517 167.184039,217.259517 C146.414039,177.728517 139.356039,132.415517 147.118039,88.4395172 C151.786039,61.5255172 161.927039,35.8495172 176.911039,13.0095172 C178.836839,10.1501172 178.809439,6.40011724 176.83682,3.57201724 C174.86412,0.743917244 171.35632,-0.580282756 168.00482,0.240017244 C119.14982,11.8260172 75.7778198,39.8920172 45.1948198,79.7130172 C14.6088198,119.533017 -1.32118025,168.678017 0.0858197512,218.873017 C1.49281975,269.068017 20.1518198,317.236017 52.9178198,355.283017 C85.6878198,393.326017 130.56582,418.920017 179.98782,427.748017 L179.991999,427.744117 Z M19.4919988,177.814117 C25.7302988,142.447117 41.3009988,109.392117 64.5969988,82.0601172 C87.8899988,54.7321172 118.061999,34.1191172 151.987999,22.3571172 C127.206999,69.8611172 120.749999,124.817117 133.850999,176.777117 C146.952999,228.734117 178.698999,274.058117 223.045999,304.137117 C267.392999,334.216117 321.248999,346.930117 374.365999,339.879117 C346.189999,374.453117 307.342999,398.711117 263.905999,408.852117 C220.471999,418.989117 174.901999,414.438017 134.335999,395.911117 C93.7659988,377.384117 60.4809988,345.923117 39.7029988,306.458117 C18.9219988,266.993117 11.8119988,221.751117 19.4919988,177.818117 L19.4919988,177.814117 Z" id="Shape"></path>
    </g>
</svg>