<?xml version="1.0" encoding="UTF-8"?>
<svg width="506px" height="55px" viewBox="0 0 506 55" version="1.1" xmlns="http://www.w3.org/2000/svg" xmlns:xlink="http://www.w3.org/1999/xlink">
    <title>NAMROOD,INC</title>
    <g id="Page-1" stroke="none" stroke-width="1" fill="none" fill-rule="evenodd">
        <g id="NAMROOD,INC." transform="translate(0.308000, 0.368000)" fill="#000000" fill-rule="nonzero">
            <polygon id="Path" points="2.84217094e-14 1.224 2.84217094e-14 52.632 10.584 52.632 10.584 18.216 10.728 18.216 32.112 52.632 43.416 52.632 43.416 1.224 32.832 1.224 32.832 35.712 32.688 35.712 11.232 1.224"></polygon>
            <path d="M62.812,32.76 L69.508,13.896 L69.652,13.896 L76.132,32.76 L62.812,32.76 Z M63.892,1.224 L44.452,52.632 L55.828,52.632 L59.86,41.184 L79.084,41.184 L82.972,52.632 L94.708,52.632 L75.484,1.224 L63.892,1.224 Z" id="Shape"></path>
            <polygon id="Path" points="95.672 1.224 95.672 52.632 106.256 52.632 106.256 16.56 106.4 16.56 119 52.632 127.712 52.632 140.312 16.2 140.456 16.2 140.456 52.632 151.04 52.632 151.04 1.224 135.128 1.224 123.752 36.576 123.608 36.576 111.584 1.224"></polygon>
            <path d="M168.78,24.48 L168.78,10.008 L181.164,10.008 C183.756,10.008 185.7,10.572 186.996,11.7 C188.292,12.828 188.94,14.64 188.94,17.136 C188.94,19.728 188.292,21.6 186.996,22.752 C185.7,23.904 183.756,24.48 181.164,24.48 L168.78,24.48 Z M157.476,1.224 L157.476,52.632 L168.78,52.632 L168.78,32.544 L180.084,32.544 C182.916,32.544 184.956,33.168 186.204,34.416 C187.452,35.664 188.268,37.632 188.652,40.32 C188.94,42.384 189.156,44.544 189.3,46.8 C189.444,49.056 189.828,51 190.452,52.632 L201.756,52.632 C201.228,51.912 200.832,51.036 200.568,50.004 C200.304,48.972 200.112,47.88 199.992,46.728 C199.872,45.576 199.788,44.448 199.74,43.344 C199.692,42.24 199.644,41.28 199.596,40.464 C199.5,39.168 199.32,37.872 199.056,36.576 C198.792,35.28 198.372,34.092 197.796,33.012 C197.22,31.932 196.476,30.996 195.564,30.204 C194.652,29.412 193.5,28.824 192.108,28.44 L192.108,28.296 C194.988,27.144 197.064,25.464 198.336,23.256 C199.608,21.048 200.244,18.432 200.244,15.408 C200.244,13.44 199.896,11.604 199.2,9.9 C198.504,8.196 197.496,6.696 196.176,5.4 C194.856,4.104 193.272,3.084 191.424,2.34 C189.576,1.596 187.5,1.224 185.196,1.224 L157.476,1.224 Z" id="Shape"></path>
            <path d="M215.032,27.144 C215.032,24.888 215.284,22.704 215.788,20.592 C216.292,18.48 217.096,16.596 218.2,14.94 C219.304,13.284 220.744,11.964 222.52,10.98 C224.296,9.996 226.456,9.504 229,9.504 C231.544,9.504 233.704,9.996 235.48,10.98 C237.256,11.964 238.696,13.284 239.8,14.94 C240.904,16.596 241.708,18.48 242.212,20.592 C242.716,22.704 242.968,24.888 242.968,27.144 C242.968,29.304 242.716,31.404 242.212,33.444 C241.708,35.484 240.904,37.32 239.8,38.952 C238.696,40.584 237.256,41.892 235.48,42.876 C233.704,43.86 231.544,44.352 229,44.352 C226.456,44.352 224.296,43.86 222.52,42.876 C220.744,41.892 219.304,40.584 218.2,38.952 C217.096,37.32 216.292,35.484 215.788,33.444 C215.284,31.404 215.032,29.304 215.032,27.144 Z M203.728,27.144 C203.728,30.888 204.304,34.38 205.456,37.62 C206.608,40.86 208.264,43.68 210.424,46.08 C212.584,48.48 215.236,50.364 218.38,51.732 C221.524,53.1 225.064,53.784 229,53.784 C232.984,53.784 236.536,53.1 239.656,51.732 C242.776,50.364 245.416,48.48 247.576,46.08 C249.736,43.68 251.392,40.86 252.544,37.62 C253.696,34.38 254.272,30.888 254.272,27.144 C254.272,23.304 253.696,19.74 252.544,16.452 C251.392,13.164 249.736,10.296 247.576,7.848 C245.416,5.4 242.776,3.48 239.656,2.088 C236.536,0.696 232.984,0 229,0 C225.064,0 221.524,0.696 218.38,2.088 C215.236,3.48 212.584,5.4 210.424,7.848 C208.264,10.296 206.608,13.164 205.456,16.452 C204.304,19.74 203.728,23.304 203.728,27.144 Z" id="Shape"></path>
            <path d="M267.548,27.144 C267.548,24.888 267.8,22.704 268.304,20.592 C268.808,18.48 269.612,16.596 270.716,14.94 C271.82,13.284 273.26,11.964 275.036,10.98 C276.812,9.996 278.972,9.504 281.516,9.504 C284.06,9.504 286.22,9.996 287.996,10.98 C289.772,11.964 291.212,13.284 292.316,14.94 C293.42,16.596 294.224,18.48 294.728,20.592 C295.232,22.704 295.484,24.888 295.484,27.144 C295.484,29.304 295.232,31.404 294.728,33.444 C294.224,35.484 293.42,37.32 292.316,38.952 C291.212,40.584 289.772,41.892 287.996,42.876 C286.22,43.86 284.06,44.352 281.516,44.352 C278.972,44.352 276.812,43.86 275.036,42.876 C273.26,41.892 271.82,40.584 270.716,38.952 C269.612,37.32 268.808,35.484 268.304,33.444 C267.8,31.404 267.548,29.304 267.548,27.144 Z M256.244,27.144 C256.244,30.888 256.82,34.38 257.972,37.62 C259.124,40.86 260.78,43.68 262.94,46.08 C265.1,48.48 267.752,50.364 270.896,51.732 C274.04,53.1 277.58,53.784 281.516,53.784 C285.5,53.784 289.052,53.1 292.172,51.732 C295.292,50.364 297.932,48.48 300.092,46.08 C302.252,43.68 303.908,40.86 305.06,37.62 C306.212,34.38 306.788,30.888 306.788,27.144 C306.788,23.304 306.212,19.74 305.06,16.452 C303.908,13.164 302.252,10.296 300.092,7.848 C297.932,5.4 295.292,3.48 292.172,2.088 C289.052,0.696 285.5,0 281.516,0 C277.58,0 274.04,0.696 270.896,2.088 C267.752,3.48 265.1,5.4 262.94,7.848 C260.78,10.296 259.124,13.164 257.972,16.452 C256.82,19.74 256.244,23.304 256.244,27.144 Z" id="Shape"></path>
            <path d="M322.296,43.128 L322.296,10.728 L330.36,10.728 C333.144,10.728 335.484,11.124 337.38,11.916 C339.276,12.708 340.8,13.848 341.952,15.336 C343.104,16.824 343.932,18.612 344.436,20.7 C344.94,22.788 345.192,25.128 345.192,27.72 C345.192,30.552 344.832,32.952 344.112,34.92 C343.392,36.888 342.432,38.484 341.232,39.708 C340.032,40.932 338.664,41.808 337.128,42.336 C335.592,42.864 334.008,43.128 332.376,43.128 L322.296,43.128 Z M310.992,1.224 L310.992,52.632 L333.168,52.632 C337.104,52.632 340.524,51.972 343.428,50.652 C346.332,49.332 348.756,47.52 350.7,45.216 C352.644,42.912 354.096,40.176 355.056,37.008 C356.016,33.84 356.496,30.384 356.496,26.64 C356.496,22.368 355.908,18.648 354.732,15.48 C353.556,12.312 351.924,9.672 349.836,7.56 C347.748,5.448 345.276,3.864 342.42,2.808 C339.564,1.752 336.48,1.224 333.168,1.224 L310.992,1.224 Z" id="Shape"></path>
            <path d="M360.268,29.544 L360.268,40.632 L365.452,40.632 C365.5,41.4 365.404,42.156 365.164,42.9 C364.924,43.644 364.564,44.316 364.084,44.916 C363.604,45.516 363.04,46.032 362.392,46.464 C361.744,46.896 361.06,47.184 360.34,47.328 L360.34,52.512 C361.876,52.272 363.328,51.828 364.696,51.18 C366.064,50.532 367.252,49.704 368.26,48.696 C369.268,47.688 370.072,46.5 370.672,45.132 C371.272,43.764 371.572,42.264 371.572,40.632 L371.572,29.544 L360.268,29.544 Z" id="Path"></path>
            <polygon id="Path" points="377.36 1.224 377.36 52.632 388.664 52.632 388.664 1.224"></polygon>
            <polygon id="Path" points="395.1 1.224 395.1 52.632 405.684 52.632 405.684 18.216 405.828 18.216 427.212 52.632 438.516 52.632 438.516 1.224 427.932 1.224 427.932 35.712 427.788 35.712 406.332 1.224"></polygon>
            <path d="M479.224,18.504 L490.168,18.504 C489.832,15.528 489.016,12.888 487.72,10.584 C486.424,8.28 484.78,6.348 482.788,4.788 C480.796,3.228 478.54,2.04 476.02,1.224 C473.5,0.408 470.824,0 467.992,0 C464.056,0 460.516,0.696 457.372,2.088 C454.228,3.48 451.576,5.4 449.416,7.848 C447.256,10.296 445.6,13.164 444.448,16.452 C443.296,19.74 442.72,23.304 442.72,27.144 C442.72,30.888 443.296,34.38 444.448,37.62 C445.6,40.86 447.256,43.68 449.416,46.08 C451.576,48.48 454.228,50.364 457.372,51.732 C460.516,53.1 464.056,53.784 467.992,53.784 C471.16,53.784 474.064,53.304 476.704,52.344 C479.344,51.384 481.648,49.992 483.616,48.168 C485.584,46.344 487.168,44.136 488.368,41.544 C489.568,38.952 490.312,36.048 490.6,32.832 L479.656,32.832 C479.224,36.288 478.036,39.072 476.092,41.184 C474.148,43.296 471.448,44.352 467.992,44.352 C465.448,44.352 463.288,43.86 461.512,42.876 C459.736,41.892 458.296,40.584 457.192,38.952 C456.088,37.32 455.284,35.484 454.78,33.444 C454.276,31.404 454.024,29.304 454.024,27.144 C454.024,24.888 454.276,22.704 454.78,20.592 C455.284,18.48 456.088,16.596 457.192,14.94 C458.296,13.284 459.736,11.964 461.512,10.98 C463.288,9.996 465.448,9.504 467.992,9.504 C469.384,9.504 470.716,9.732 471.988,10.188 C473.26,10.644 474.4,11.28 475.408,12.096 C476.416,12.912 477.256,13.86 477.928,14.94 C478.6,16.02 479.032,17.208 479.224,18.504 Z" id="Path"></path>
            <polygon id="Path" points="494.156 41.544 494.156 52.632 505.46 52.632 505.46 41.544"></polygon>
        </g>
    </g>
</svg>