<?xml version="1.0" encoding="UTF-8"?>
<svg width="406px" height="406px" viewBox="0 0 406 406" version="1.1" xmlns="http://www.w3.org/2000/svg" xmlns:xlink="http://www.w3.org/1999/xlink">
    <g id="noun-sunny-3785982" transform="translate(0.951600, 0.955200)" fill="none" fill-rule="nonzero">
        <path d="M202.0484,317.2348 C232.5994,317.2348 261.9004,305.0978 283.5014,283.4968 C305.1024,261.8958 317.2394,232.5948 317.2394,202.0438 C317.2394,171.4928 305.1024,142.1918 283.5014,120.5908 C261.9004,98.9898 232.5994,86.8528 202.0484,86.8528 C171.4974,86.8528 142.1964,98.9898 120.5954,120.5908 C98.9944,142.1918 86.8574,171.4928 86.8574,202.0438 C86.900368,232.5828 99.0524,261.8558 120.6464,283.4458 C142.2364,305.0398 171.5094,317.1918 202.0484,317.2348 Z" id="Shape"></path>
        <path d="M202.0484,63.8948 C206.689,63.8948 210.4468,60.1331 210.4468,55.4964 L210.4468,8.3984 C210.4468,3.7578 206.689,0 202.0484,0 C197.4078,0 193.65,3.7578 193.65,8.3984 L193.65,55.4964 C193.65,60.1331 197.4078,63.8948 202.0484,63.8948 Z" id="Path"></path>
        <path d="M121.5184,79.3448 C123.0106,81.9542 125.7918,83.5596 128.7996,83.5441127 C130.2605,83.536188 131.6941,83.12994 132.9402,82.3682 C136.8504,80.0987 138.2214,75.1182 136.0222,71.1692 L112.4442,30.1182 C110.1278,26.0987 104.9872,24.7198 100.9672,27.0401 C96.9438,29.3604 95.5649,34.501 97.8852,38.5201 L121.5184,79.3448 Z" id="Path"></path>
        <path d="M30.1284,112.4448 L70.9524,135.9648 L70.9524,135.968706 C72.2024,136.730426 73.636,137.136706 75.0969,137.144506 C78.8625,137.082006 82.136,134.539006 83.1203,130.902306 C84.10858,127.269506 82.57343,123.417906 79.3547,121.460906 L38.5307,97.940906 C34.5659,95.995606 29.769,97.448716 27.5577,101.272906 C25.3429,105.093206 26.4679,109.976006 30.128,112.444906 L30.1284,112.4448 Z" id="Path"></path>
        <path d="M8.3984,210.4448 L55.4964,210.4448 C60.1331,210.4448 63.8948,206.687 63.8948,202.0464 C63.8948,197.4058 60.1331,193.648 55.4964,193.648 L8.3984,193.648 C3.7578,193.648 -2.84217094e-14,197.4058 -2.84217094e-14,202.0464 C-2.84217094e-14,206.687 3.7578,210.4448 8.3984,210.4448 L8.3984,210.4448 Z" id="Path"></path>
        <path d="M70.9484,268.0648 L30.1244,291.6428 C26.8275,293.5412 25.2182,297.4201 26.2025,301.0959 C27.18688,304.7717 30.5189,307.3264 34.3275,307.322529 C35.8002,307.326406 37.2494,306.93969 38.5267,306.2014 L79.3507,282.6274 C83.0109,280.1547 84.1359,275.2719 81.9249,271.4514 C79.7101,267.6272 74.9132,266.1741 70.9479,268.1194 L70.9484,268.0648 Z" id="Path"></path>
        <path d="M121.5184,324.7448 L97.9404,365.5688 C95.7763,369.5219 97.13962,374.479 101.0224,376.7678 C102.2919,377.52171 103.7451,377.9084 105.2216,377.8889 C108.1474,377.92015 110.8778,376.4358 112.4443,373.9709 L135.9643,333.1469 L135.968206,333.1469 C137.913506,329.1821 136.460396,324.3852 132.636206,322.1699 C128.815906,319.959 123.933106,321.084 121.460206,324.7441 L121.5184,324.7448 Z" id="Path"></path>
        <path d="M193.6484,348.5948 L193.6484,395.6928 C193.6484,400.3334 197.4062,404.0912 202.0468,404.0912 C206.6874,404.0912 210.4452,400.3334 210.4452,395.6928 L210.4452,348.5948 C210.4452,343.9581 206.6874,340.1964 202.0468,340.1964 C197.4062,340.1964 193.6484,343.9581 193.6484,348.5948 Z" id="Path"></path>
        <path d="M271.1584,321.7148 C267.2482,323.9843 265.8772,328.9648 268.0764,332.9138 L291.6544,373.9648 C293.1622,376.5546 295.9317,378.1523 298.9317,378.164 C300.4083,378.183531 301.8614,377.79681 303.1309,377.0429 C307.0176,374.7538 308.3809,369.7968 306.2129,365.8439 L282.6389,325.0199 C281.5725,323.0394 279.7561,321.5707 277.592,320.9496 C275.4318,320.3246 273.1115,320.60194 271.1584,321.71522 L271.1584,321.7148 Z" id="Path"></path>
        <path d="M324.7484,282.5748 L365.5724,306.1488 L365.5724,306.152707 C366.8497,306.890987 368.299,307.277707 369.7716,307.270023 C373.5411,307.234751 376.8224,304.691807 377.7989,301.051107 C378.77546,297.414407 377.21296,293.570607 373.9747,291.648807 L333.1507,268.128807 L333.1507,268.124901 C329.1859,266.179601 324.389,267.632711 322.1737,271.456901 C319.9628,275.277201 321.0878,280.160001 324.7479,282.632901 L324.7484,282.5748 Z" id="Path"></path>
        <path d="M340.1984,202.0448 C340.1984,206.6854 343.9601,210.4432 348.5968,210.4432 L395.6948,210.4432 C400.3354,210.4432 404.0932,206.6854 404.0932,202.0448 C404.0932,197.4042 400.3354,193.6464 395.6948,193.6464 L348.5968,193.6464 C343.9601,193.6464 340.1984,197.4042 340.1984,202.0448 Z" id="Path"></path>
        <path d="M328.9984,137.1948 C330.4593,137.186987 331.8929,136.78074 333.1429,136.019 L373.9669,112.441 C377.9864,110.1246 379.3653,104.984 377.045,100.964 C374.7247,96.9406 369.5841,95.5617 365.565,97.882 L324.741,121.456 C321.5222,123.413 319.9871,127.2646 320.9754,130.8974 C321.95977,134.5341 325.2332,137.0771 328.9988,137.1396 L328.9984,137.1948 Z" id="Path"></path>
        <path d="M271.1584,82.3748 C272.4045,83.13652 273.8381,83.5428 275.299,83.550713 C278.3068,83.566225 281.0881,81.9608 282.5802,79.3514 L306.1542,38.5274 L306.158107,38.5274 C308.103407,34.5626 306.650297,29.7657 302.826107,27.5544 C299.005807,25.3396 294.123007,26.4646 291.654107,30.1247 L268.134107,70.9487 L268.130201,70.9487 C267.001301,72.8628 266.681001,75.1479 267.251291,77.2964 C267.817701,79.4448 269.227891,81.273 271.157491,82.3745 L271.1584,82.3748 Z" id="Path"></path>
    </g>
</svg>